<?xml version="1.0" encoding="utf-8" standalone="no"?>
<!DOCTYPE svg PUBLIC "-//W3C//DTD SVG 1.1//EN"
  "http://www.w3.org/Graphics/SVG/1.1/DTD/svg11.dtd">
<svg xmlns:xlink="http://www.w3.org/1999/xlink" width="547.2pt" height="316.8pt" viewBox="0 0 547.2 316.8" xmlns="http://www.w3.org/2000/svg" version="1.1">
 <metadata>
  <rdf:RDF xmlns:dc="http://purl.org/dc/elements/1.1/" xmlns:cc="http://creativecommons.org/ns#" xmlns:rdf="http://www.w3.org/1999/02/22-rdf-syntax-ns#">
   <cc:Work>
    <dc:type rdf:resource="http://purl.org/dc/dcmitype/StillImage"/>
    <dc:format>image/svg+xml</dc:format>
    <dc:creator>
     <cc:Agent>
      <dc:title>Matplotlib v3.10.8, https://matplotlib.org/</dc:title>
     </cc:Agent>
    </dc:creator>
   </cc:Work>
  </rdf:RDF>
 </metadata>
 <defs>
  <style type="text/css">*{stroke-linejoin: round; stroke-linecap: butt}</style>
 </defs>
 <g id="figure_1">
  <g id="patch_1">
   <path d="M 0 316.8
L 547.2 316.8
L 547.2 0
L 0 0
L 0 316.8
z
" style="fill: none"/>
  </g>
  <g id="axes_1">
   <g id="patch_2">
    <path d="M 60.192 262.944
L 525.312 262.944
L 525.312 98.208
L 60.192 98.208
L 60.192 262.944
z
" style="fill: none"/>
   </g>
   <g id="matplotlib.axis_1">
    <g id="xtick_1">
     <g id="line2d_1">
      <path d="M 81.333818 262.944
L 81.333818 98.208
" clip-path="url(#peafe707cc0)" style="fill: none; stroke: #b0b0b0; stroke-opacity: 0.16; stroke-width: 0.8; stroke-linecap: square"/>
     </g>
     <g id="line2d_2">
      <defs>
       <path id="m969dc05020" d="M 0 0
L 0 3.5
" style="stroke: #415950; stroke-width: 0.8"/>
      </defs>
      <g>
       <use xlink:href="#m969dc05020" x="81.333818" y="262.944" style="fill: #415950; stroke: #415950; stroke-width: 0.8"/>
      </g>
     </g>
     <g id="text_1">
      <!-- −0.2 -->
      <g style="fill: #415950" transform="translate(70.022803 279.200406) scale(0.13 -0.13)">
       <defs>
        <path id="SourceSans3-Regular-2212" d="M 218 1914
L 218 2310
L 2963 2310
L 2963 1914
L 218 1914
z
" transform="scale(0.015625)"/>
        <path id="SourceSans3-Regular-30" d="M 1594 -77
Q 979 -77 630 476
Q 282 1030 282 2054
Q 282 3085 630 3622
Q 979 4160 1594 4160
Q 2202 4160 2550 3619
Q 2899 3078 2899 2054
Q 2899 1030 2550 476
Q 2202 -77 1594 -77
z
M 1594 346
Q 1830 346 2009 525
Q 2189 704 2288 1081
Q 2387 1459 2387 2054
Q 2387 2656 2288 3027
Q 2189 3398 2009 3568
Q 1830 3738 1594 3738
Q 1350 3738 1171 3568
Q 992 3398 893 3027
Q 794 2656 794 2054
Q 794 1459 893 1081
Q 992 704 1171 525
Q 1350 346 1594 346
z
" transform="scale(0.015625)"/>
        <path id="SourceSans3-Regular-2e" d="M 800 -77
Q 646 -77 531 35
Q 416 147 416 320
Q 416 506 531 618
Q 646 730 800 730
Q 960 730 1069 618
Q 1178 506 1178 320
Q 1178 147 1069 35
Q 960 -77 800 -77
z
" transform="scale(0.015625)"/>
        <path id="SourceSans3-Regular-32" d="M 256 0
L 256 320
Q 864 922 1296 1386
Q 1728 1850 1952 2227
Q 2176 2605 2176 2931
Q 2176 3283 1984 3507
Q 1792 3731 1402 3731
Q 1146 3731 928 3590
Q 710 3450 531 3238
L 237 3526
Q 493 3814 784 3987
Q 1075 4160 1466 4160
Q 1843 4160 2118 4009
Q 2394 3859 2541 3590
Q 2688 3322 2688 2963
Q 2688 2566 2467 2176
Q 2246 1786 1862 1357
Q 1478 928 979 416
Q 1146 435 1325 444
Q 1504 454 1664 454
L 2893 454
L 2893 0
L 256 0
z
" transform="scale(0.015625)"/>
       </defs>
       <use xlink:href="#SourceSans3-Regular-2212"/>
       <use xlink:href="#SourceSans3-Regular-30" transform="translate(49.699997 0)"/>
       <use xlink:href="#SourceSans3-Regular-2e" transform="translate(99.399994 0)"/>
       <use xlink:href="#SourceSans3-Regular-32" transform="translate(124.299988 0)"/>
      </g>
     </g>
    </g>
    <g id="xtick_2">
     <g id="line2d_3">
      <path d="M 165.901091 262.944
L 165.901091 98.208
" clip-path="url(#peafe707cc0)" style="fill: none; stroke: #b0b0b0; stroke-opacity: 0.16; stroke-width: 0.8; stroke-linecap: square"/>
     </g>
     <g id="line2d_4">
      <g>
       <use xlink:href="#m969dc05020" x="165.901091" y="262.944" style="fill: #415950; stroke: #415950; stroke-width: 0.8"/>
      </g>
     </g>
     <g id="text_2">
      <!-- 0.0 -->
      <g style="fill: #415950" transform="translate(157.820778 279.200406) scale(0.13 -0.13)">
       <use xlink:href="#SourceSans3-Regular-30"/>
       <use xlink:href="#SourceSans3-Regular-2e" transform="translate(49.699997 0)"/>
       <use xlink:href="#SourceSans3-Regular-30" transform="translate(74.599991 0)"/>
      </g>
     </g>
    </g>
    <g id="xtick_3">
     <g id="line2d_5">
      <path d="M 250.468364 262.944
L 250.468364 98.208
" clip-path="url(#peafe707cc0)" style="fill: none; stroke: #b0b0b0; stroke-opacity: 0.16; stroke-width: 0.8; stroke-linecap: square"/>
     </g>
     <g id="line2d_6">
      <g>
       <use xlink:href="#m969dc05020" x="250.468364" y="262.944" style="fill: #415950; stroke: #415950; stroke-width: 0.8"/>
      </g>
     </g>
     <g id="text_3">
      <!-- 0.2 -->
      <g style="fill: #415950" transform="translate(242.388051 279.200406) scale(0.13 -0.13)">
       <use xlink:href="#SourceSans3-Regular-30"/>
       <use xlink:href="#SourceSans3-Regular-2e" transform="translate(49.699997 0)"/>
       <use xlink:href="#SourceSans3-Regular-32" transform="translate(74.599991 0)"/>
      </g>
     </g>
    </g>
    <g id="xtick_4">
     <g id="line2d_7">
      <path d="M 335.035636 262.944
L 335.035636 98.208
" clip-path="url(#peafe707cc0)" style="fill: none; stroke: #b0b0b0; stroke-opacity: 0.16; stroke-width: 0.8; stroke-linecap: square"/>
     </g>
     <g id="line2d_8">
      <g>
       <use xlink:href="#m969dc05020" x="335.035636" y="262.944" style="fill: #415950; stroke: #415950; stroke-width: 0.8"/>
      </g>
     </g>
     <g id="text_4">
      <!-- 0.4 -->
      <g style="fill: #415950" transform="translate(326.955324 279.200406) scale(0.13 -0.13)">
       <defs>
        <path id="SourceSans3-Regular-34" d="M 1946 0
L 1946 2733
Q 1946 2893 1958 3126
Q 1971 3360 1978 3520
L 1952 3520
Q 1875 3373 1792 3235
Q 1709 3098 1619 2944
L 666 1549
L 3002 1549
L 3002 1126
L 109 1126
L 109 1472
L 1856 4083
L 2445 4083
L 2445 0
L 1946 0
z
" transform="scale(0.015625)"/>
       </defs>
       <use xlink:href="#SourceSans3-Regular-30"/>
       <use xlink:href="#SourceSans3-Regular-2e" transform="translate(49.699997 0)"/>
       <use xlink:href="#SourceSans3-Regular-34" transform="translate(74.599991 0)"/>
      </g>
     </g>
    </g>
    <g id="xtick_5">
     <g id="line2d_9">
      <path d="M 419.602909 262.944
L 419.602909 98.208
" clip-path="url(#peafe707cc0)" style="fill: none; stroke: #b0b0b0; stroke-opacity: 0.16; stroke-width: 0.8; stroke-linecap: square"/>
     </g>
     <g id="line2d_10">
      <g>
       <use xlink:href="#m969dc05020" x="419.602909" y="262.944" style="fill: #415950; stroke: #415950; stroke-width: 0.8"/>
      </g>
     </g>
     <g id="text_5">
      <!-- 0.6 -->
      <g style="fill: #415950" transform="translate(411.522597 279.200406) scale(0.13 -0.13)">
       <defs>
        <path id="SourceSans3-Regular-36" d="M 1715 -77
Q 1414 -77 1158 44
Q 902 166 713 412
Q 525 659 416 1027
Q 307 1395 307 1888
Q 307 2502 435 2934
Q 563 3366 780 3635
Q 998 3904 1276 4032
Q 1555 4160 1862 4160
Q 2195 4160 2435 4035
Q 2675 3910 2848 3725
L 2554 3398
Q 2432 3546 2253 3632
Q 2074 3718 1882 3718
Q 1594 3718 1347 3545
Q 1101 3373 953 2973
Q 806 2573 806 1888
Q 806 1382 912 1036
Q 1018 691 1222 515
Q 1427 339 1715 339
Q 1914 339 2077 451
Q 2240 563 2333 764
Q 2426 966 2426 1235
Q 2426 1498 2342 1693
Q 2259 1888 2092 1993
Q 1926 2099 1670 2099
Q 1472 2099 1238 1968
Q 1005 1837 794 1523
L 774 1939
Q 973 2195 1235 2345
Q 1498 2496 1760 2496
Q 2112 2496 2374 2355
Q 2637 2214 2781 1932
Q 2925 1651 2925 1235
Q 2925 845 2758 550
Q 2592 256 2317 89
Q 2042 -77 1715 -77
z
" transform="scale(0.015625)"/>
       </defs>
       <use xlink:href="#SourceSans3-Regular-30"/>
       <use xlink:href="#SourceSans3-Regular-2e" transform="translate(49.699997 0)"/>
       <use xlink:href="#SourceSans3-Regular-36" transform="translate(74.599991 0)"/>
      </g>
     </g>
    </g>
    <g id="xtick_6">
     <g id="line2d_11">
      <path d="M 504.170182 262.944
L 504.170182 98.208
" clip-path="url(#peafe707cc0)" style="fill: none; stroke: #b0b0b0; stroke-opacity: 0.16; stroke-width: 0.8; stroke-linecap: square"/>
     </g>
     <g id="line2d_12">
      <g>
       <use xlink:href="#m969dc05020" x="504.170182" y="262.944" style="fill: #415950; stroke: #415950; stroke-width: 0.8"/>
      </g>
     </g>
     <g id="text_6">
      <!-- 0.8 -->
      <g style="fill: #415950" transform="translate(496.089869 279.200406) scale(0.13 -0.13)">
       <defs>
        <path id="SourceSans3-Regular-38" d="M 1600 -77
Q 1216 -77 912 67
Q 608 211 435 467
Q 262 723 262 1043
Q 262 1312 374 1520
Q 486 1728 662 1885
Q 838 2042 1030 2144
L 1030 2170
Q 806 2330 633 2560
Q 461 2790 461 3110
Q 461 3424 614 3661
Q 768 3898 1027 4029
Q 1286 4160 1619 4160
Q 2150 4160 2460 3856
Q 2771 3552 2771 3072
Q 2771 2861 2681 2672
Q 2592 2483 2464 2332
Q 2336 2182 2208 2086
L 2208 2061
Q 2387 1958 2550 1817
Q 2714 1677 2816 1481
Q 2918 1286 2918 1011
Q 2918 710 2755 464
Q 2592 218 2294 70
Q 1997 -77 1600 -77
z
M 1888 2227
Q 2099 2413 2208 2617
Q 2317 2822 2317 3046
Q 2317 3245 2233 3408
Q 2150 3571 1990 3670
Q 1830 3770 1606 3770
Q 1325 3770 1136 3587
Q 947 3405 947 3110
Q 947 2867 1078 2707
Q 1210 2547 1424 2435
Q 1638 2323 1888 2227
z
M 1613 314
Q 1850 314 2029 403
Q 2208 493 2310 656
Q 2413 819 2413 1030
Q 2413 1293 2259 1459
Q 2106 1626 1856 1744
Q 1606 1862 1306 1984
Q 1062 1824 899 1600
Q 736 1376 736 1094
Q 736 870 851 694
Q 966 518 1164 416
Q 1363 314 1613 314
z
" transform="scale(0.015625)"/>
       </defs>
       <use xlink:href="#SourceSans3-Regular-30"/>
       <use xlink:href="#SourceSans3-Regular-2e" transform="translate(49.699997 0)"/>
       <use xlink:href="#SourceSans3-Regular-38" transform="translate(74.599991 0)"/>
      </g>
     </g>
    </g>
    <g id="text_7">
     <!-- Posición $x$ -->
     <g style="fill: #203c33" transform="translate(263.282 295.833844) scale(0.14 -0.14)">
      <defs>
       <path id="SourceSans3-Regular-50" d="M 576 0
L 576 4198
L 1773 4198
Q 2246 4198 2598 4080
Q 2950 3962 3148 3693
Q 3347 3424 3347 2963
Q 3347 2522 3152 2237
Q 2957 1952 2608 1808
Q 2259 1664 1798 1664
L 1107 1664
L 1107 0
L 576 0
z
M 1107 2099
L 1734 2099
Q 2285 2099 2550 2310
Q 2816 2522 2816 2963
Q 2816 3418 2537 3594
Q 2259 3770 1709 3770
L 1107 3770
L 1107 2099
z
" transform="scale(0.015625)"/>
       <path id="SourceSans3-Regular-6f" d="M 1734 -77
Q 1357 -77 1027 115
Q 698 307 496 672
Q 294 1037 294 1549
Q 294 2074 496 2438
Q 698 2803 1027 2995
Q 1357 3187 1734 3187
Q 2118 3187 2444 2995
Q 2771 2803 2972 2438
Q 3174 2074 3174 1549
Q 3174 1037 2972 672
Q 2771 307 2444 115
Q 2118 -77 1734 -77
z
M 1734 358
Q 2003 358 2208 508
Q 2413 659 2521 928
Q 2630 1197 2630 1549
Q 2630 1907 2521 2179
Q 2413 2451 2208 2601
Q 2003 2752 1734 2752
Q 1466 2752 1264 2601
Q 1062 2451 950 2179
Q 838 1907 838 1549
Q 838 1197 950 928
Q 1062 659 1264 508
Q 1466 358 1734 358
z
" transform="scale(0.015625)"/>
       <path id="SourceSans3-Regular-73" d="M 1338 -77
Q 998 -77 694 41
Q 390 160 179 371
L 422 678
Q 627 512 848 422
Q 1069 333 1357 333
Q 1664 333 1817 477
Q 1971 621 1971 819
Q 1971 979 1865 1084
Q 1760 1190 1603 1264
Q 1446 1338 1267 1402
Q 1037 1485 825 1597
Q 614 1709 483 1878
Q 352 2048 352 2304
Q 352 2682 637 2934
Q 922 3187 1427 3187
Q 1715 3187 1964 3088
Q 2214 2989 2394 2835
L 2150 2534
Q 1984 2650 1811 2714
Q 1638 2778 1427 2778
Q 1133 2778 995 2643
Q 858 2509 858 2330
Q 858 2189 941 2096
Q 1024 2003 1174 1932
Q 1325 1862 1517 1798
Q 1760 1709 1981 1597
Q 2202 1485 2339 1309
Q 2477 1133 2477 851
Q 2477 595 2345 387
Q 2214 179 1961 51
Q 1709 -77 1338 -77
z
" transform="scale(0.015625)"/>
       <path id="SourceSans3-Regular-69" d="M 525 0
L 525 3110
L 1050 3110
L 1050 0
L 525 0
z
M 787 3750
Q 634 3750 534 3846
Q 435 3942 435 4096
Q 435 4250 534 4346
Q 634 4442 787 4442
Q 941 4442 1040 4346
Q 1139 4250 1139 4096
Q 1139 3942 1040 3846
Q 941 3750 787 3750
z
" transform="scale(0.015625)"/>
       <path id="SourceSans3-Regular-63" d="M 1760 -77
Q 1344 -77 1011 115
Q 678 307 486 672
Q 294 1037 294 1549
Q 294 2074 502 2438
Q 710 2803 1052 2995
Q 1395 3187 1792 3187
Q 2099 3187 2320 3084
Q 2541 2982 2701 2822
L 2438 2496
Q 2323 2611 2166 2678
Q 2010 2746 1811 2746
Q 1536 2746 1315 2595
Q 1094 2445 966 2176
Q 838 1907 838 1549
Q 838 1197 960 928
Q 1082 659 1299 508
Q 1517 358 1805 358
Q 2022 358 2208 441
Q 2394 525 2528 653
L 2758 333
Q 2560 147 2310 35
Q 2061 -77 1760 -77
z
" transform="scale(0.015625)"/>
       <path id="SourceSans3-Regular-f3" d="M 1734 -77
Q 1357 -77 1027 115
Q 698 307 496 672
Q 294 1037 294 1549
Q 294 2074 496 2438
Q 698 2803 1027 2995
Q 1357 3187 1734 3187
Q 2118 3187 2444 2995
Q 2771 2803 2972 2438
Q 3174 2074 3174 1549
Q 3174 1037 2972 672
Q 2771 307 2444 115
Q 2118 -77 1734 -77
z
M 1734 358
Q 2003 358 2208 508
Q 2413 659 2521 928
Q 2630 1197 2630 1549
Q 2630 1907 2521 2179
Q 2413 2451 2208 2601
Q 2003 2752 1734 2752
Q 1466 2752 1264 2601
Q 1062 2451 950 2179
Q 838 1907 838 1549
Q 838 1197 950 928
Q 1062 659 1264 508
Q 1466 358 1734 358
z
M 1242 3648
L 2067 4704
L 2643 4704
L 2675 4646
L 1664 3648
L 1242 3648
z
" transform="scale(0.015625)"/>
       <path id="SourceSans3-Regular-6e" d="M 525 0
L 525 3110
L 960 3110
L 1005 2662
L 1024 2662
Q 1248 2886 1497 3036
Q 1747 3187 2067 3187
Q 2560 3187 2787 2876
Q 3014 2566 3014 1971
L 3014 0
L 2490 0
L 2490 1901
Q 2490 2342 2352 2537
Q 2214 2733 1901 2733
Q 1664 2733 1475 2611
Q 1286 2490 1050 2253
L 1050 0
L 525 0
z
" transform="scale(0.015625)"/>
       <path id="SourceSans3-Regular-20" transform="scale(0.015625)"/>
       <path id="STIXGeneral-Italic-78" d="M 1555 2272
L 1632 1907
Q 1971 2426 2179 2624
Q 2387 2822 2598 2822
Q 2714 2822 2787 2755
Q 2861 2688 2861 2585
Q 2861 2483 2800 2419
Q 2739 2355 2643 2355
Q 2586 2355 2490 2409
Q 2394 2464 2310 2464
Q 2125 2464 1683 1690
Q 1683 1606 1734 1402
L 1939 544
Q 2003 282 2131 282
Q 2234 282 2432 538
Q 2451 563 2476 598
Q 2502 634 2521 662
Q 2541 691 2566 717
L 2662 659
Q 2387 230 2227 80
Q 2067 -70 1882 -70
Q 1728 -70 1645 26
Q 1562 122 1504 365
L 1318 1126
L 755 365
Q 557 96 432 13
Q 307 -70 147 -70
Q 0 -70 -86 0
Q -173 70 -173 198
Q -173 294 -112 361
Q -51 429 45 429
Q 122 429 250 358
Q 346 301 416 301
Q 525 301 742 614
L 1267 1357
L 1088 2150
Q 1024 2432 969 2509
Q 915 2586 794 2586
Q 717 2586 544 2541
L 429 2509
L 410 2611
L 480 2637
Q 992 2822 1229 2822
Q 1350 2822 1420 2707
Q 1491 2592 1555 2272
z
" transform="scale(0.015625)"/>
      </defs>
      <use xlink:href="#SourceSans3-Regular-50" transform="translate(0 0.5)"/>
      <use xlink:href="#SourceSans3-Regular-6f" transform="translate(56.599991 0.5)"/>
      <use xlink:href="#SourceSans3-Regular-73" transform="translate(110.799988 0.5)"/>
      <use xlink:href="#SourceSans3-Regular-69" transform="translate(152.699982 0.5)"/>
      <use xlink:href="#SourceSans3-Regular-63" transform="translate(177.299973 0.5)"/>
      <use xlink:href="#SourceSans3-Regular-69" transform="translate(222.899963 0.5)"/>
      <use xlink:href="#SourceSans3-Regular-f3" transform="translate(247.499954 0.5)"/>
      <use xlink:href="#SourceSans3-Regular-6e" transform="translate(301.699951 0.5)"/>
      <use xlink:href="#SourceSans3-Regular-20" transform="translate(356.399948 0.5)"/>
      <use xlink:href="#STIXGeneral-Italic-78" transform="translate(376.399933 0.5)"/>
     </g>
    </g>
   </g>
   <g id="matplotlib.axis_2">
    <g id="ytick_1">
     <g id="line2d_13">
      <path d="M 60.192 256.898642
L 525.312 256.898642
" clip-path="url(#peafe707cc0)" style="fill: none; stroke: #b0b0b0; stroke-opacity: 0.16; stroke-width: 0.8; stroke-linecap: square"/>
     </g>
     <g id="line2d_14">
      <defs>
       <path id="m5665a70516" d="M 0 0
L -3.5 0
" style="stroke: #415950; stroke-width: 0.8"/>
      </defs>
      <g>
       <use xlink:href="#m5665a70516" x="60.192" y="256.898642" style="fill: #415950; stroke: #415950; stroke-width: 0.8"/>
      </g>
     </g>
     <g id="text_8">
      <!-- 0.0 -->
      <g style="fill: #415950" transform="translate(37.031375 261.526845) scale(0.13 -0.13)">
       <use xlink:href="#SourceSans3-Regular-30"/>
       <use xlink:href="#SourceSans3-Regular-2e" transform="translate(49.699997 0)"/>
       <use xlink:href="#SourceSans3-Regular-30" transform="translate(74.599991 0)"/>
      </g>
     </g>
    </g>
    <g id="ytick_2">
     <g id="line2d_15">
      <path d="M 60.192 226.671853
L 525.312 226.671853
" clip-path="url(#peafe707cc0)" style="fill: none; stroke: #b0b0b0; stroke-opacity: 0.16; stroke-width: 0.8; stroke-linecap: square"/>
     </g>
     <g id="line2d_16">
      <g>
       <use xlink:href="#m5665a70516" x="60.192" y="226.671853" style="fill: #415950; stroke: #415950; stroke-width: 0.8"/>
      </g>
     </g>
     <g id="text_9">
      <!-- 0.2 -->
      <g style="fill: #415950" transform="translate(37.031375 231.300056) scale(0.13 -0.13)">
       <use xlink:href="#SourceSans3-Regular-30"/>
       <use xlink:href="#SourceSans3-Regular-2e" transform="translate(49.699997 0)"/>
       <use xlink:href="#SourceSans3-Regular-32" transform="translate(74.599991 0)"/>
      </g>
     </g>
    </g>
    <g id="ytick_3">
     <g id="line2d_17">
      <path d="M 60.192 196.445064
L 525.312 196.445064
" clip-path="url(#peafe707cc0)" style="fill: none; stroke: #b0b0b0; stroke-opacity: 0.16; stroke-width: 0.8; stroke-linecap: square"/>
     </g>
     <g id="line2d_18">
      <g>
       <use xlink:href="#m5665a70516" x="60.192" y="196.445064" style="fill: #415950; stroke: #415950; stroke-width: 0.8"/>
      </g>
     </g>
     <g id="text_10">
      <!-- 0.4 -->
      <g style="fill: #415950" transform="translate(37.031375 201.073267) scale(0.13 -0.13)">
       <use xlink:href="#SourceSans3-Regular-30"/>
       <use xlink:href="#SourceSans3-Regular-2e" transform="translate(49.699997 0)"/>
       <use xlink:href="#SourceSans3-Regular-34" transform="translate(74.599991 0)"/>
      </g>
     </g>
    </g>
    <g id="ytick_4">
     <g id="line2d_19">
      <path d="M 60.192 166.218275
L 525.312 166.218275
" clip-path="url(#peafe707cc0)" style="fill: none; stroke: #b0b0b0; stroke-opacity: 0.16; stroke-width: 0.8; stroke-linecap: square"/>
     </g>
     <g id="line2d_20">
      <g>
       <use xlink:href="#m5665a70516" x="60.192" y="166.218275" style="fill: #415950; stroke: #415950; stroke-width: 0.8"/>
      </g>
     </g>
     <g id="text_11">
      <!-- 0.6 -->
      <g style="fill: #415950" transform="translate(37.031375 170.846478) scale(0.13 -0.13)">
       <use xlink:href="#SourceSans3-Regular-30"/>
       <use xlink:href="#SourceSans3-Regular-2e" transform="translate(49.699997 0)"/>
       <use xlink:href="#SourceSans3-Regular-36" transform="translate(74.599991 0)"/>
      </g>
     </g>
    </g>
    <g id="ytick_5">
     <g id="line2d_21">
      <path d="M 60.192 135.991486
L 525.312 135.991486
" clip-path="url(#peafe707cc0)" style="fill: none; stroke: #b0b0b0; stroke-opacity: 0.16; stroke-width: 0.8; stroke-linecap: square"/>
     </g>
     <g id="line2d_22">
      <g>
       <use xlink:href="#m5665a70516" x="60.192" y="135.991486" style="fill: #415950; stroke: #415950; stroke-width: 0.8"/>
      </g>
     </g>
     <g id="text_12">
      <!-- 0.8 -->
      <g style="fill: #415950" transform="translate(37.031375 140.619689) scale(0.13 -0.13)">
       <use xlink:href="#SourceSans3-Regular-30"/>
       <use xlink:href="#SourceSans3-Regular-2e" transform="translate(49.699997 0)"/>
       <use xlink:href="#SourceSans3-Regular-38" transform="translate(74.599991 0)"/>
      </g>
     </g>
    </g>
    <g id="ytick_6">
     <g id="line2d_23">
      <path d="M 60.192 105.764697
L 525.312 105.764697
" clip-path="url(#peafe707cc0)" style="fill: none; stroke: #b0b0b0; stroke-opacity: 0.16; stroke-width: 0.8; stroke-linecap: square"/>
     </g>
     <g id="line2d_24">
      <g>
       <use xlink:href="#m5665a70516" x="60.192" y="105.764697" style="fill: #415950; stroke: #415950; stroke-width: 0.8"/>
      </g>
     </g>
     <g id="text_13">
      <!-- 1.0 -->
      <g style="fill: #415950" transform="translate(37.031375 110.3929) scale(0.13 -0.13)">
       <defs>
        <path id="SourceSans3-Regular-31" d="M 506 0
L 506 435
L 1440 435
L 1440 3443
L 698 3443
L 698 3782
Q 973 3834 1184 3907
Q 1395 3981 1562 4083
L 1965 4083
L 1965 435
L 2810 435
L 2810 0
L 506 0
z
" transform="scale(0.015625)"/>
       </defs>
       <use xlink:href="#SourceSans3-Regular-31"/>
       <use xlink:href="#SourceSans3-Regular-2e" transform="translate(49.699997 0)"/>
       <use xlink:href="#SourceSans3-Regular-30" transform="translate(74.599991 0)"/>
      </g>
     </g>
    </g>
    <g id="text_14">
     <!-- $u(x,0.6)$ -->
     <g style="fill: #203c33" transform="translate(30.161375 203.396) rotate(-90) scale(0.14 -0.14)">
      <defs>
       <path id="STIXGeneral-Italic-75" d="M 2950 762
L 3040 704
Q 2733 237 2560 89
Q 2387 -58 2157 -58
Q 1850 -58 1850 250
Q 1850 538 2138 1510
Q 1568 576 1257 253
Q 947 -70 608 -70
Q 269 -70 269 269
Q 269 384 442 1088
L 666 1978
Q 755 2349 755 2406
Q 755 2483 684 2521
Q 614 2560 365 2560
L 365 2650
Q 806 2701 1325 2822
L 1350 2803
L 781 531
Q 762 474 762 429
Q 762 269 890 269
Q 1178 269 1798 1210
Q 2010 1530 2128 1795
Q 2246 2061 2502 2765
L 2976 2765
L 2470 851
Q 2349 390 2349 352
Q 2349 243 2419 243
Q 2496 243 2605 345
Q 2714 448 2950 762
z
" transform="scale(0.015625)"/>
       <path id="STIXGeneral-Regular-28" d="M 1946 -1030
L 1869 -1133
Q 1126 -710 716 32
Q 307 774 307 1613
Q 307 3386 1888 4326
L 1946 4224
Q 1293 3667 1075 3126
Q 858 2586 858 1632
Q 858 685 1082 96
Q 1306 -493 1946 -1030
z
" transform="scale(0.015625)"/>
       <path id="STIXGeneral-Regular-2c" d="M 531 -902
L 467 -781
Q 998 -422 998 -96
Q 998 -13 909 -13
Q 883 -13 822 -25
Q 762 -38 723 -38
Q 352 -38 352 288
Q 352 454 457 553
Q 563 653 736 653
Q 954 653 1101 496
Q 1248 339 1248 96
Q 1248 -198 1053 -473
Q 858 -749 531 -902
z
" transform="scale(0.015625)"/>
       <path id="STIXGeneral-Regular-30" d="M 3046 2112
Q 3046 1683 2963 1302
Q 2880 922 2717 602
Q 2554 282 2266 96
Q 1978 -90 1600 -90
Q 1210 -90 915 108
Q 621 307 461 640
Q 301 973 227 1350
Q 154 1728 154 2150
Q 154 2746 301 3222
Q 448 3699 790 4012
Q 1133 4326 1626 4326
Q 2253 4326 2649 3712
Q 3046 3098 3046 2112
z
M 2432 2080
Q 2432 3091 2217 3625
Q 2003 4160 1587 4160
Q 1190 4160 979 3622
Q 768 3085 768 2106
Q 768 1120 979 598
Q 1190 77 1600 77
Q 2003 77 2217 598
Q 2432 1120 2432 2080
z
" transform="scale(0.015625)"/>
       <path id="STIXGeneral-Regular-2e" d="M 1158 275
Q 1158 134 1052 32
Q 947 -70 800 -70
Q 653 -70 550 32
Q 448 134 448 281
Q 448 429 553 534
Q 659 640 806 640
Q 947 640 1052 531
Q 1158 422 1158 275
z
" transform="scale(0.015625)"/>
       <path id="STIXGeneral-Regular-36" d="M 2854 4378
L 2867 4275
Q 2112 4154 1606 3664
Q 1101 3174 973 2451
Q 1344 2739 1786 2739
Q 2349 2739 2672 2380
Q 2995 2022 2995 1402
Q 2995 774 2669 378
Q 2291 -90 1651 -90
Q 870 -90 518 557
Q 218 1107 218 1786
Q 218 2835 915 3552
Q 1312 3962 1731 4131
Q 2150 4301 2854 4378
z
M 2419 1203
Q 2419 2445 1555 2445
Q 1235 2445 1024 2275
Q 813 2106 813 1702
Q 813 954 1046 522
Q 1280 90 1722 90
Q 2061 90 2240 394
Q 2419 698 2419 1203
z
" transform="scale(0.015625)"/>
       <path id="STIXGeneral-Regular-29" d="M 186 4224
L 262 4326
Q 992 3891 1408 3148
Q 1824 2406 1824 1581
Q 1824 -166 243 -1133
L 186 -1030
Q 845 -486 1059 54
Q 1274 595 1274 1562
Q 1274 2534 1059 3120
Q 845 3706 186 4224
z
" transform="scale(0.015625)"/>
      </defs>
      <use xlink:href="#STIXGeneral-Italic-75" transform="translate(0 0.59375)"/>
      <use xlink:href="#STIXGeneral-Regular-28" transform="translate(49.999985 0.59375)"/>
      <use xlink:href="#STIXGeneral-Italic-78" transform="translate(83.299973 0.59375)"/>
      <use xlink:href="#STIXGeneral-Regular-2c" transform="translate(127.699966 0.59375)"/>
      <use xlink:href="#STIXGeneral-Regular-30" transform="translate(167.139948 0.59375)"/>
      <use xlink:href="#STIXGeneral-Regular-2e" transform="translate(217.139932 0.59375)"/>
      <use xlink:href="#STIXGeneral-Regular-36" transform="translate(242.139917 0.59375)"/>
      <use xlink:href="#STIXGeneral-Regular-29" transform="translate(292.139902 0.59375)"/>
     </g>
    </g>
   </g>
   <g id="line2d_25">
    <path d="M 60.192 105.764697
L 292.752 105.764697
L 292.752 256.898642
L 525.312 256.898642
" clip-path="url(#peafe707cc0)" style="fill: none; stroke: #153f36; stroke-width: 2.6; stroke-linecap: square"/>
   </g>
   <g id="line2d_26">
    <path d="M 60.192 105.780484
L 119.4948 105.928011
L 144.2043 106.19645
L 160.4835 106.582771
L 172.6929 107.084005
L 182.5767 107.704412
L 191.007 108.455357
L 198.2745 109.32682
L 204.6699 110.317328
L 210.4839 111.44579
L 215.7165 112.687496
L 220.6584 114.094245
L 225.3096 115.660531
L 229.6701 117.373745
L 233.7399 119.213962
L 237.519 121.15427
L 241.2981 123.338773
L 245.0772 125.787621
L 248.8563 128.519565
L 252.3447 131.306817
L 255.8331 134.359435
L 259.6122 137.973613
L 263.3913 141.909854
L 267.1704 146.16373
L 271.2402 151.085243
L 275.6007 156.718802
L 280.5426 163.491365
L 286.3566 171.857202
L 307.5777 202.803794
L 312.2289 208.992953
L 316.5894 214.432344
L 320.6592 219.154467
L 324.4383 223.213832
L 328.2174 226.951918
L 331.9965 230.368881
L 335.7756 233.471333
L 339.5547 236.271039
L 343.3338 238.783622
L 347.1129 241.027376
L 350.892 243.022207
L 354.9618 244.915786
L 359.0316 246.570411
L 363.3921 248.106518
L 368.0433 249.507254
L 372.9852 250.762368
L 378.5085 251.923349
L 384.3225 252.915454
L 390.7179 253.784701
L 397.9854 254.548265
L 406.4157 255.205323
L 416.2995 255.747529
L 428.5089 256.185167
L 444.2067 256.513513
L 466.2999 256.737187
L 503.5095 256.861365
L 525.312 256.882856
L 525.312 256.882856
" clip-path="url(#peafe707cc0)" style="fill: none; stroke-dasharray: 9.25,4; stroke-dashoffset: 0; stroke: #0072b2; stroke-width: 2.5"/>
   </g>
   <g id="line2d_27">
    <path d="M 60.192 105.764697
L 246.8214 105.872849
L 254.0889 106.104321
L 258.4494 106.438623
L 261.6471 106.877199
L 264.2634 107.438939
L 266.589 108.168693
L 268.6239 109.058249
L 270.3681 110.071054
L 271.8216 111.140711
L 273.2751 112.463938
L 274.7286 114.094245
L 276.1821 116.092928
L 277.6356 118.528333
L 279.0891 121.473938
L 280.5426 125.00481
L 281.9961 129.192006
L 283.4496 134.094724
L 284.9031 139.750406
L 286.6473 147.534784
L 288.3915 156.332519
L 290.7171 169.312391
L 297.6939 209.36709
L 299.7288 219.154467
L 301.473 226.397814
L 302.9265 231.598809
L 304.38 236.066089
L 305.8335 239.851427
L 307.287 243.022207
L 308.7405 245.652685
L 310.194 247.81751
L 311.6475 249.58739
L 313.101 251.026586
L 314.5545 252.191752
L 316.2987 253.296447
L 318.0429 254.146746
L 320.0778 254.891992
L 322.4034 255.502261
L 325.3104 256.012649
L 328.7988 256.386198
L 333.45 256.652078
L 340.7175 256.820158
L 355.5432 256.891059
L 456.9975 256.898642
L 525.312 256.898642
L 525.312 256.898642
" clip-path="url(#peafe707cc0)" style="fill: none; stroke-dasharray: 2.5,4.125; stroke-dashoffset: 0; stroke: #a65313; stroke-width: 2.5"/>
   </g>
   <g id="patch_3">
    <path d="M 60.192 262.944
L 60.192 98.208
" style="fill: none; stroke: #415950; stroke-width: 0.8; stroke-linejoin: miter; stroke-linecap: square"/>
   </g>
   <g id="patch_4">
    <path d="M 60.192 262.944
L 525.312 262.944
" style="fill: none; stroke: #415950; stroke-width: 0.8; stroke-linejoin: miter; stroke-linecap: square"/>
   </g>
  </g>
  <g id="legend_1">
   <g id="line2d_28">
    <path d="M 222.396 21.480375
L 234.396 21.480375
L 246.396 21.480375
" style="fill: none; stroke: #153f36; stroke-width: 2.6; stroke-linecap: square"/>
   </g>
   <g id="text_15">
    <!-- Choque exacto -->
    <g style="fill: #203c33" transform="translate(255.996 25.680375) scale(0.12 -0.12)">
     <defs>
      <path id="SourceSans3-Regular-43" d="M 2170 -77
Q 1645 -77 1225 182
Q 806 442 569 928
Q 333 1414 333 2099
Q 333 2605 470 3008
Q 608 3411 864 3696
Q 1120 3981 1456 4128
Q 1792 4275 2195 4275
Q 2573 4275 2870 4121
Q 3168 3968 3347 3757
L 3059 3430
Q 2893 3610 2678 3709
Q 2464 3808 2202 3808
Q 1811 3808 1513 3600
Q 1216 3392 1049 3011
Q 883 2630 883 2112
Q 883 1581 1043 1197
Q 1203 813 1504 605
Q 1805 397 2208 397
Q 2502 397 2736 509
Q 2970 621 3162 838
L 3443 525
Q 3194 237 2886 80
Q 2579 -77 2170 -77
z
" transform="scale(0.015625)"/>
      <path id="SourceSans3-Regular-68" d="M 525 0
L 525 4557
L 1050 4557
L 1050 3315
L 1030 2675
Q 1254 2886 1500 3036
Q 1747 3187 2067 3187
Q 2560 3187 2787 2876
Q 3014 2566 3014 1971
L 3014 0
L 2490 0
L 2490 1901
Q 2490 2342 2352 2537
Q 2214 2733 1901 2733
Q 1664 2733 1475 2611
Q 1286 2490 1050 2253
L 1050 0
L 525 0
z
" transform="scale(0.015625)"/>
      <path id="SourceSans3-Regular-71" d="M 2496 -1312
L 2496 -205
L 2522 358
Q 2336 179 2096 51
Q 1856 -77 1587 -77
Q 998 -77 649 348
Q 301 774 301 1549
Q 301 2054 489 2422
Q 678 2790 985 2988
Q 1293 3187 1651 3187
Q 1920 3187 2128 3091
Q 2336 2995 2541 2816
L 2554 2816
L 2605 3110
L 3027 3110
L 3027 -1312
L 2496 -1312
z
M 1702 365
Q 1920 365 2112 473
Q 2304 582 2496 794
L 2496 2419
Q 2304 2598 2118 2672
Q 1933 2746 1741 2746
Q 1491 2746 1289 2595
Q 1088 2445 966 2179
Q 845 1914 845 1555
Q 845 998 1069 681
Q 1293 365 1702 365
z
" transform="scale(0.015625)"/>
      <path id="SourceSans3-Regular-75" d="M 1434 -77
Q 941 -77 713 233
Q 486 544 486 1139
L 486 3110
L 1011 3110
L 1011 1210
Q 1011 774 1148 579
Q 1286 384 1594 384
Q 1830 384 2019 509
Q 2208 634 2432 902
L 2432 3110
L 2957 3110
L 2957 0
L 2522 0
L 2477 486
L 2458 486
Q 2246 230 2000 76
Q 1754 -77 1434 -77
z
" transform="scale(0.015625)"/>
      <path id="SourceSans3-Regular-65" d="M 1786 -77
Q 1370 -77 1027 118
Q 685 314 486 675
Q 288 1037 288 1555
Q 288 2061 493 2425
Q 698 2790 1018 2988
Q 1338 3187 1696 3187
Q 2093 3187 2371 3004
Q 2650 2822 2790 2496
Q 2931 2170 2931 1728
Q 2931 1645 2928 1568
Q 2925 1491 2906 1414
L 666 1414
L 666 1830
L 2458 1830
Q 2458 2278 2262 2518
Q 2067 2758 1702 2758
Q 1491 2758 1286 2640
Q 1082 2522 950 2259
Q 819 1997 819 1562
Q 819 1165 956 896
Q 1094 627 1331 489
Q 1568 352 1850 352
Q 2074 352 2269 416
Q 2464 480 2624 589
L 2816 243
Q 2611 102 2358 12
Q 2106 -77 1786 -77
z
" transform="scale(0.015625)"/>
      <path id="SourceSans3-Regular-78" d="M 90 0
L 1107 1626
L 166 3110
L 736 3110
L 1152 2426
Q 1222 2304 1302 2173
Q 1382 2042 1459 1907
L 1485 1907
Q 1555 2042 1625 2173
Q 1696 2304 1766 2426
L 2144 3110
L 2694 3110
L 1754 1568
L 2765 0
L 2195 0
L 1741 723
Q 1658 864 1571 1005
Q 1485 1146 1402 1280
L 1376 1280
Q 1293 1146 1216 1008
Q 1139 870 1062 723
L 640 0
L 90 0
z
" transform="scale(0.015625)"/>
      <path id="SourceSans3-Regular-61" d="M 1242 -77
Q 986 -77 778 28
Q 570 134 448 329
Q 326 525 326 806
Q 326 1331 787 1600
Q 1248 1869 2246 1978
Q 2240 2170 2185 2349
Q 2131 2528 1990 2637
Q 1850 2746 1600 2746
Q 1331 2746 1094 2646
Q 858 2547 672 2426
L 467 2784
Q 608 2880 800 2973
Q 992 3066 1216 3126
Q 1440 3187 1690 3187
Q 2067 3187 2307 3030
Q 2547 2874 2659 2586
Q 2771 2298 2771 1907
L 2771 0
L 2336 0
L 2291 371
L 2272 371
Q 2048 186 1792 54
Q 1536 -77 1242 -77
z
M 1389 358
Q 1619 358 1820 460
Q 2022 563 2246 762
L 2246 1600
Q 1722 1536 1418 1437
Q 1114 1338 979 1190
Q 845 1043 845 838
Q 845 582 1005 470
Q 1165 358 1389 358
z
" transform="scale(0.015625)"/>
      <path id="SourceSans3-Regular-74" d="M 1504 -58
Q 1011 -58 812 230
Q 614 518 614 979
L 614 2682
L 154 2682
L 154 3078
L 640 3110
L 704 4109
L 1146 4109
L 1146 3110
L 1990 3110
L 1990 2682
L 1146 2682
L 1146 973
Q 1146 691 1251 531
Q 1357 371 1626 371
Q 1709 371 1798 387
Q 1888 403 1978 448
L 2093 77
Q 1971 19 1817 -19
Q 1664 -58 1504 -58
z
" transform="scale(0.015625)"/>
     </defs>
     <use xlink:href="#SourceSans3-Regular-43"/>
     <use xlink:href="#SourceSans3-Regular-68" transform="translate(57.099991 0)"/>
     <use xlink:href="#SourceSans3-Regular-6f" transform="translate(111.499985 0)"/>
     <use xlink:href="#SourceSans3-Regular-71" transform="translate(165.699982 0)"/>
     <use xlink:href="#SourceSans3-Regular-75" transform="translate(221.199966 0)"/>
     <use xlink:href="#SourceSans3-Regular-65" transform="translate(275.59996 0)"/>
     <use xlink:href="#SourceSans3-Regular-20" transform="translate(325.199951 0)"/>
     <use xlink:href="#SourceSans3-Regular-65" transform="translate(345.199936 0)"/>
     <use xlink:href="#SourceSans3-Regular-78" transform="translate(394.799927 0)"/>
     <use xlink:href="#SourceSans3-Regular-61" transform="translate(439.399918 0)"/>
     <use xlink:href="#SourceSans3-Regular-63" transform="translate(489.799911 0)"/>
     <use xlink:href="#SourceSans3-Regular-74" transform="translate(535.399902 0)"/>
     <use xlink:href="#SourceSans3-Regular-6f" transform="translate(569.19989 0)"/>
    </g>
   </g>
   <g id="line2d_29">
    <path d="M 222.396 38.48475
L 234.396 38.48475
L 246.396 38.48475
" style="fill: none; stroke-dasharray: 9.25,4; stroke-dashoffset: 0; stroke: #0072b2; stroke-width: 2.5"/>
   </g>
   <g id="text_16">
    <!-- Perfil suave, $\delta=0.12$ -->
    <g style="fill: #203c33" transform="translate(255.996 42.68475) scale(0.12 -0.12)">
     <defs>
      <path id="SourceSans3-Regular-72" d="M 525 0
L 525 3110
L 960 3110
L 1005 2547
L 1024 2547
Q 1178 2842 1408 3014
Q 1638 3187 1907 3187
Q 2010 3187 2086 3174
Q 2163 3162 2240 3123
L 2125 2675
Q 2054 2694 1993 2704
Q 1933 2714 1837 2714
Q 1638 2714 1424 2554
Q 1210 2394 1050 1997
L 1050 0
L 525 0
z
" transform="scale(0.015625)"/>
      <path id="SourceSans3-Regular-66" d="M 614 0
L 614 3603
Q 614 3917 710 4150
Q 806 4384 1008 4509
Q 1210 4634 1523 4634
Q 1664 4634 1801 4605
Q 1939 4576 2042 4531
L 1926 4147
Q 1741 4205 1574 4205
Q 1357 4205 1248 4054
Q 1139 3904 1139 3603
L 1139 0
L 614 0
z
M 154 2682
L 154 3078
L 640 3110
L 1798 3110
L 1798 2682
L 154 2682
z
" transform="scale(0.015625)"/>
      <path id="SourceSans3-Regular-6c" d="M 1082 -58
Q 883 -58 761 22
Q 640 102 582 259
Q 525 416 525 640
L 525 4557
L 1050 4557
L 1050 602
Q 1050 474 1094 426
Q 1139 378 1203 378
Q 1229 378 1251 381
Q 1274 384 1312 390
L 1389 -6
Q 1331 -26 1257 -42
Q 1184 -58 1082 -58
z
" transform="scale(0.015625)"/>
      <path id="SourceSans3-Regular-76" d="M 1197 0
L 77 3110
L 621 3110
L 1210 1344
Q 1280 1120 1353 886
Q 1427 653 1498 429
L 1523 429
Q 1587 653 1664 886
Q 1741 1120 1805 1344
L 2394 3110
L 2912 3110
L 1811 0
L 1197 0
z
" transform="scale(0.015625)"/>
      <path id="SourceSans3-Regular-2c" d="M 429 -1088
L 301 -781
Q 576 -659 729 -451
Q 883 -243 877 13
L 819 486
L 1082 102
Q 1024 45 957 19
Q 890 -6 813 -6
Q 659 -6 547 90
Q 435 186 435 358
Q 435 531 553 630
Q 672 730 826 730
Q 1037 730 1152 566
Q 1267 403 1267 109
Q 1267 -301 1043 -614
Q 819 -928 429 -1088
z
" transform="scale(0.015625)"/>
      <path id="STIXGeneral-Italic-3b4" d="M 2944 3866
Q 2944 3744 2883 3651
Q 2822 3558 2694 3558
Q 2579 3558 2508 3606
Q 2438 3654 2403 3721
Q 2368 3789 2323 3856
Q 2278 3923 2179 3971
Q 2080 4019 1920 4019
Q 1715 4019 1516 3916
Q 1318 3814 1318 3648
Q 1318 3482 1484 3328
Q 1651 3174 1942 2985
Q 2234 2797 2381 2656
Q 2605 2445 2701 2249
Q 2797 2054 2797 1709
Q 2797 1037 2313 483
Q 1830 -70 1101 -70
Q 646 -70 400 166
Q 154 403 154 838
Q 154 1453 640 1981
Q 1126 2509 1741 2566
Q 1690 2618 1526 2771
Q 1363 2925 1299 2998
Q 1235 3072 1164 3203
Q 1094 3334 1094 3456
Q 1094 3744 1286 3939
Q 1478 4134 1712 4204
Q 1946 4275 2176 4275
Q 2458 4275 2701 4169
Q 2944 4064 2944 3866
z
M 2278 1702
Q 2278 2086 2156 2259
Q 2035 2432 1850 2432
Q 1427 2432 1059 1869
Q 691 1306 691 646
Q 691 384 828 224
Q 966 64 1190 64
Q 1466 64 1728 371
Q 1990 678 2134 1056
Q 2278 1434 2278 1702
z
" transform="scale(0.015625)"/>
      <path id="STIXGeneral-Regular-3d" d="M 4077 2048
L 307 2048
L 307 2470
L 4077 2470
L 4077 2048
z
M 4077 768
L 307 768
L 307 1190
L 4077 1190
L 4077 768
z
" transform="scale(0.015625)"/>
      <path id="STIXGeneral-Regular-31" d="M 2522 0
L 755 0
L 755 96
Q 1107 115 1235 227
Q 1363 339 1363 608
L 1363 3482
Q 1363 3795 1171 3795
Q 1082 3795 883 3718
L 710 3654
L 710 3744
L 1856 4326
L 1914 4307
L 1914 486
Q 1914 275 2042 185
Q 2170 96 2522 96
L 2522 0
z
" transform="scale(0.015625)"/>
      <path id="STIXGeneral-Regular-32" d="M 3034 877
L 2688 0
L 186 0
L 186 77
L 1325 1286
Q 1773 1754 1965 2144
Q 2157 2534 2157 2950
Q 2157 3379 1920 3616
Q 1683 3853 1267 3853
Q 922 3853 720 3673
Q 518 3494 326 3021
L 192 3053
Q 301 3648 630 3987
Q 960 4326 1523 4326
Q 2054 4326 2380 4006
Q 2707 3686 2707 3200
Q 2707 2477 1888 1613
L 832 486
L 2330 486
Q 2541 486 2665 569
Q 2790 653 2944 915
L 3034 877
z
" transform="scale(0.015625)"/>
     </defs>
     <use xlink:href="#SourceSans3-Regular-50" transform="translate(0 0.59375)"/>
     <use xlink:href="#SourceSans3-Regular-65" transform="translate(56.599991 0.59375)"/>
     <use xlink:href="#SourceSans3-Regular-72" transform="translate(106.199982 0.59375)"/>
     <use xlink:href="#SourceSans3-Regular-66" transform="translate(140.899979 0.59375)"/>
     <use xlink:href="#SourceSans3-Regular-69" transform="translate(170.099976 0.59375)"/>
     <use xlink:href="#SourceSans3-Regular-6c" transform="translate(194.699966 0.59375)"/>
     <use xlink:href="#SourceSans3-Regular-20" transform="translate(220.199951 0.59375)"/>
     <use xlink:href="#SourceSans3-Regular-73" transform="translate(240.199936 0.59375)"/>
     <use xlink:href="#SourceSans3-Regular-75" transform="translate(282.09993 0.59375)"/>
     <use xlink:href="#SourceSans3-Regular-61" transform="translate(336.499924 0.59375)"/>
     <use xlink:href="#SourceSans3-Regular-76" transform="translate(386.899918 0.59375)"/>
     <use xlink:href="#SourceSans3-Regular-65" transform="translate(433.599915 0.59375)"/>
     <use xlink:href="#SourceSans3-Regular-2c" transform="translate(483.199905 0.59375)"/>
     <use xlink:href="#SourceSans3-Regular-20" transform="translate(508.099899 0.59375)"/>
     <use xlink:href="#STIXGeneral-Italic-3b4" transform="translate(528.099884 0.59375)"/>
     <use xlink:href="#STIXGeneral-Regular-3d" transform="translate(588.539865 0.59375)"/>
     <use xlink:href="#STIXGeneral-Regular-30" transform="translate(671.479846 0.59375)"/>
     <use xlink:href="#STIXGeneral-Regular-2e" transform="translate(721.479831 0.59375)"/>
     <use xlink:href="#STIXGeneral-Regular-31" transform="translate(746.479816 0.59375)"/>
     <use xlink:href="#STIXGeneral-Regular-32" transform="translate(796.4798 0.59375)"/>
    </g>
   </g>
   <g id="line2d_30">
    <path d="M 222.396 55.489125
L 234.396 55.489125
L 246.396 55.489125
" style="fill: none; stroke-dasharray: 2.5,4.125; stroke-dashoffset: 0; stroke: #a65313; stroke-width: 2.5"/>
   </g>
   <g id="text_17">
    <!-- Perfil suave, $\delta=0.03$ -->
    <g style="fill: #203c33" transform="translate(255.996 59.689125) scale(0.12 -0.12)">
     <defs>
      <path id="STIXGeneral-Regular-33" d="M 390 3264
L 288 3290
Q 435 3770 748 4048
Q 1062 4326 1542 4326
Q 1990 4326 2265 4083
Q 2541 3840 2541 3450
Q 2541 2925 1946 2566
Q 2298 2413 2477 2227
Q 2758 1914 2758 1402
Q 2758 890 2464 506
Q 2246 211 1840 60
Q 1434 -90 979 -90
Q 262 -90 262 275
Q 262 378 339 442
Q 416 506 525 506
Q 685 506 915 339
Q 1197 141 1466 141
Q 1818 141 2058 425
Q 2298 710 2298 1120
Q 2298 1856 1632 2048
Q 1434 2112 979 2112
L 979 2202
Q 1338 2323 1517 2432
Q 2035 2726 2035 3290
Q 2035 3610 1852 3776
Q 1670 3942 1344 3942
Q 768 3942 390 3264
z
" transform="scale(0.015625)"/>
     </defs>
     <use xlink:href="#SourceSans3-Regular-50" transform="translate(0 0.59375)"/>
     <use xlink:href="#SourceSans3-Regular-65" transform="translate(56.599991 0.59375)"/>
     <use xlink:href="#SourceSans3-Regular-72" transform="translate(106.199982 0.59375)"/>
     <use xlink:href="#SourceSans3-Regular-66" transform="translate(140.899979 0.59375)"/>
     <use xlink:href="#SourceSans3-Regular-69" transform="translate(170.099976 0.59375)"/>
     <use xlink:href="#SourceSans3-Regular-6c" transform="translate(194.699966 0.59375)"/>
     <use xlink:href="#SourceSans3-Regular-20" transform="translate(220.199951 0.59375)"/>
     <use xlink:href="#SourceSans3-Regular-73" transform="translate(240.199936 0.59375)"/>
     <use xlink:href="#SourceSans3-Regular-75" transform="translate(282.09993 0.59375)"/>
     <use xlink:href="#SourceSans3-Regular-61" transform="translate(336.499924 0.59375)"/>
     <use xlink:href="#SourceSans3-Regular-76" transform="translate(386.899918 0.59375)"/>
     <use xlink:href="#SourceSans3-Regular-65" transform="translate(433.599915 0.59375)"/>
     <use xlink:href="#SourceSans3-Regular-2c" transform="translate(483.199905 0.59375)"/>
     <use xlink:href="#SourceSans3-Regular-20" transform="translate(508.099899 0.59375)"/>
     <use xlink:href="#STIXGeneral-Italic-3b4" transform="translate(528.099884 0.59375)"/>
     <use xlink:href="#STIXGeneral-Regular-3d" transform="translate(588.539865 0.59375)"/>
     <use xlink:href="#STIXGeneral-Regular-30" transform="translate(671.479846 0.59375)"/>
     <use xlink:href="#STIXGeneral-Regular-2e" transform="translate(721.479831 0.59375)"/>
     <use xlink:href="#STIXGeneral-Regular-30" transform="translate(746.479816 0.59375)"/>
     <use xlink:href="#STIXGeneral-Regular-33" transform="translate(796.4798 0.59375)"/>
    </g>
   </g>
  </g>
 </g>
 <defs>
  <clipPath id="peafe707cc0">
   <rect x="60.192" y="98.208" width="465.12" height="164.736"/>
  </clipPath>
 </defs>
</svg>
